<mxfile host="drawio-plugin" modified="2022-11-22T10:25:42.712Z" agent="5.0 (Windows NT 6.2; Win64; x64) AppleWebKit/537.36 (KHTML, like Gecko) Chrome/98.0.4758.102 Safari/537.36" etag="JjYDebUZ-vcTlTQR5oen" version="20.5.3" type="embed"><diagram name="Page-1" id="c7558073-3199-34d8-9f00-42111426c3f3"><mxGraphModel dx="1243" dy="1437" grid="1" gridSize="10" guides="1" tooltips="1" connect="1" arrows="1" fold="1" page="1" pageScale="1" pageWidth="826" pageHeight="1169" background="none" math="0" shadow="0"><root><mxCell id="0"/><mxCell id="1" parent="0"/><mxCell id="127" value="fusion" style="shape=umlLifeline;perimeter=lifelinePerimeter;whiteSpace=wrap;html=1;container=1;collapsible=0;recursiveResize=0;outlineConnect=0;fontFamily=Lucida Console;fontSize=19;fontStyle=1" parent="1" vertex="1"><mxGeometry x="200" y="98" width="80" height="1400" as="geometry"/></mxCell><mxCell id="129" value="" style="shape=umlLifeline;participant=umlActor;perimeter=lifelinePerimeter;whiteSpace=wrap;html=1;container=1;collapsible=0;recursiveResize=0;verticalAlign=top;spacingTop=36;outlineConnect=0;fontSize=20;" parent="1" vertex="1"><mxGeometry x="54" y="98" width="20" height="1400" as="geometry"/></mxCell><mxCell id="150" value="insure" style="html=1;verticalAlign=bottom;endArrow=block;rounded=0;fontFamily=Lucida Console;fontSize=16;" parent="129" target="127" edge="1"><mxGeometry width="80" relative="1" as="geometry"><mxPoint x="10" y="62" as="sourcePoint"/><mxPoint x="90" y="62" as="targetPoint"/></mxGeometry></mxCell><mxCell id="133" value="" style="html=1;points=[];perimeter=orthogonalPerimeter;" parent="1" vertex="1"><mxGeometry x="59" y="160" width="10" height="1310" as="geometry"/></mxCell><mxCell id="134" value="issuance" style="shape=umlLifeline;perimeter=lifelinePerimeter;whiteSpace=wrap;html=1;container=1;collapsible=0;recursiveResize=0;outlineConnect=0;fontFamily=Lucida Console;fontSize=16;fontStyle=1" parent="1" vertex="1"><mxGeometry x="600" y="97" width="80" height="1400" as="geometry"/></mxCell><mxCell id="205" value="" style="html=1;points=[];perimeter=orthogonalPerimeter;fontFamily=Lucida Console;fontSize=16;" parent="134" vertex="1"><mxGeometry x="44" y="892.94" width="10" height="40" as="geometry"/></mxCell><mxCell id="206" value="save issuance" style="edgeStyle=orthogonalEdgeStyle;html=1;align=left;spacingLeft=2;endArrow=block;rounded=0;entryX=1;entryY=0;fontFamily=Lucida Console;fontSize=16;exitX=1.224;exitY=0.293;exitDx=0;exitDy=0;exitPerimeter=0;" parent="134" edge="1"><mxGeometry relative="1" as="geometry"><mxPoint x="45.23999999999978" y="873.0729999999999" as="sourcePoint"/><Array as="points"><mxPoint x="79" y="872.94"/><mxPoint x="79" y="893.94"/></Array><mxPoint x="54" y="893.94" as="targetPoint"/></mxGeometry></mxCell><mxCell id="135" value="policy" style="shape=umlLifeline;perimeter=lifelinePerimeter;whiteSpace=wrap;html=1;container=1;collapsible=0;recursiveResize=0;outlineConnect=0;fontFamily=Lucida Console;fontSize=19;fontStyle=1" parent="1" vertex="1"><mxGeometry x="800" y="97" width="80" height="1400" as="geometry"/></mxCell><mxCell id="209" value="" style="html=1;points=[];perimeter=orthogonalPerimeter;" vertex="1" parent="135"><mxGeometry x="36" y="993" width="10" height="307" as="geometry"/></mxCell><mxCell id="212" value="" style="html=1;points=[];perimeter=orthogonalPerimeter;fontFamily=Lucida Console;fontSize=16;" vertex="1" parent="135"><mxGeometry x="46" y="1031.8700000000001" width="10" height="40" as="geometry"/></mxCell><mxCell id="213" value="save policy" style="edgeStyle=orthogonalEdgeStyle;html=1;align=left;spacingLeft=2;endArrow=block;rounded=0;entryX=1;entryY=0;fontFamily=Lucida Console;fontSize=16;exitX=1.224;exitY=0.293;exitDx=0;exitDy=0;exitPerimeter=0;" edge="1" parent="135"><mxGeometry relative="1" as="geometry"><mxPoint x="47.23999999999978" y="1012.0029999999999" as="sourcePoint"/><Array as="points"><mxPoint x="81" y="1011.8700000000001"/><mxPoint x="81" y="1032.8700000000001"/></Array><mxPoint x="56" y="1032.8700000000001" as="targetPoint"/></mxGeometry></mxCell><mxCell id="136" value="market" style="shape=umlLifeline;perimeter=lifelinePerimeter;whiteSpace=wrap;html=1;container=1;collapsible=0;recursiveResize=0;outlineConnect=0;fontFamily=Lucida Console;fontSize=18;fontStyle=1" parent="1" vertex="1"><mxGeometry x="1200" y="97" width="80" height="1400" as="geometry"/></mxCell><mxCell id="182" value="" style="html=1;points=[];perimeter=orthogonalPerimeter;fontFamily=Lucida Console;fontSize=16;" parent="136" vertex="1"><mxGeometry x="35" y="754" width="10" height="80" as="geometry"/></mxCell><mxCell id="196" value="" style="html=1;points=[];perimeter=orthogonalPerimeter;fontFamily=Lucida Console;fontSize=16;" parent="136" vertex="1"><mxGeometry x="34" y="372" width="10" height="80" as="geometry"/></mxCell><mxCell id="137" value="customer" style="shape=umlLifeline;perimeter=lifelinePerimeter;whiteSpace=wrap;html=1;container=1;collapsible=0;recursiveResize=0;outlineConnect=0;fontFamily=Lucida Console;fontSize=15;fontStyle=1" parent="1" vertex="1"><mxGeometry x="1400" y="96" width="80" height="1400" as="geometry"/></mxCell><mxCell id="138" value="bcp" style="shape=umlLifeline;perimeter=lifelinePerimeter;whiteSpace=wrap;html=1;container=1;collapsible=0;recursiveResize=0;outlineConnect=0;fontFamily=Lucida Console;fontSize=20;fontStyle=1" parent="1" vertex="1"><mxGeometry x="1600" y="97" width="80" height="1400" as="geometry"/></mxCell><mxCell id="187" value="" style="html=1;points=[];perimeter=orthogonalPerimeter;fontFamily=Lucida Console;fontSize=16;" parent="138" vertex="1"><mxGeometry x="35" y="113" width="10" height="80" as="geometry"/></mxCell><mxCell id="214" value="" style="html=1;points=[];perimeter=orthogonalPerimeter;fontFamily=Lucida Console;fontSize=14;" vertex="1" parent="138"><mxGeometry x="35" y="1103" width="10" height="80" as="geometry"/></mxCell><mxCell id="139" value="misc" style="shape=umlLifeline;perimeter=lifelinePerimeter;whiteSpace=wrap;html=1;container=1;collapsible=0;recursiveResize=0;outlineConnect=0;fontFamily=Lucida Console;fontSize=20;fontStyle=1" parent="1" vertex="1"><mxGeometry x="1800" y="97" width="80" height="1400" as="geometry"/></mxCell><mxCell id="217" value="" style="html=1;points=[];perimeter=orthogonalPerimeter;fontFamily=Lucida Console;fontSize=14;" vertex="1" parent="139"><mxGeometry x="36" y="1300" width="10" height="80" as="geometry"/></mxCell><mxCell id="143" value="biz" style="shape=umlLifeline;perimeter=lifelinePerimeter;whiteSpace=wrap;html=1;container=1;collapsible=0;recursiveResize=0;outlineConnect=0;fontFamily=Lucida Console;fontSize=22;fontStyle=1" parent="1" vertex="1"><mxGeometry x="400" y="98" width="80" height="1400" as="geometry"/></mxCell><mxCell id="202" value="" style="html=1;points=[];perimeter=orthogonalPerimeter;fontFamily=Lucida Console;fontSize=16;" parent="143" vertex="1"><mxGeometry x="35" y="82" width="10" height="500" as="geometry"/></mxCell><mxCell id="204" value="return success" style="html=1;verticalAlign=bottom;endArrow=open;dashed=1;endSize=8;exitX=0;exitY=0.95;rounded=0;fontFamily=Lucida Console;fontSize=16;" parent="143" target="127" edge="1"><mxGeometry relative="1" as="geometry"><mxPoint x="-114.67647058823513" y="581.9999999999966" as="targetPoint"/><mxPoint x="35" y="581.9999999999966" as="sourcePoint"/></mxGeometry></mxCell><mxCell id="167" value="return success" style="html=1;verticalAlign=bottom;endArrow=open;dashed=1;endSize=8;rounded=0;fontFamily=Lucida Console;fontSize=16;" parent="143" edge="1"><mxGeometry relative="1" as="geometry"><mxPoint x="230" y="574" as="sourcePoint"/><mxPoint x="40" y="574" as="targetPoint"/></mxGeometry></mxCell><mxCell id="154" value="xd" style="shape=umlLifeline;perimeter=lifelinePerimeter;whiteSpace=wrap;html=1;container=1;collapsible=0;recursiveResize=0;outlineConnect=0;fontFamily=Lucida Console;fontStyle=1;fontSize=22;" parent="1" vertex="1"><mxGeometry x="1000" y="98" width="80" height="1400" as="geometry"/></mxCell><mxCell id="183" value="splitGoods" style="html=1;verticalAlign=bottom;endArrow=block;entryX=0;entryY=0;rounded=0;fontFamily=Lucida Console;fontSize=16;" parent="1" target="182" edge="1"><mxGeometry relative="1" as="geometry"><mxPoint x="641.3235294117649" y="851" as="sourcePoint"/></mxGeometry></mxCell><mxCell id="184" value="return" style="html=1;verticalAlign=bottom;endArrow=open;dashed=1;endSize=8;exitX=0;exitY=0.95;rounded=0;fontFamily=Lucida Console;fontSize=16;" parent="1" source="182" edge="1"><mxGeometry relative="1" as="geometry"><mxPoint x="642" y="927" as="targetPoint"/></mxGeometry></mxCell><mxCell id="188" value="createCollectionBalance" style="html=1;verticalAlign=bottom;endArrow=block;entryX=0;entryY=0;rounded=0;fontFamily=Lucida Console;fontSize=16;" parent="1" target="187" edge="1"><mxGeometry relative="1" as="geometry"><mxPoint x="439.32352941176487" y="209.99999999999977" as="sourcePoint"/></mxGeometry></mxCell><mxCell id="189" value="return" style="html=1;verticalAlign=bottom;endArrow=open;dashed=1;endSize=8;exitX=0;exitY=0.95;rounded=0;fontFamily=Lucida Console;fontSize=16;" parent="1" source="187" target="143" edge="1"><mxGeometry relative="1" as="geometry"><mxPoint x="1565" y="286" as="targetPoint"/></mxGeometry></mxCell><mxCell id="190" value="" style="html=1;points=[];perimeter=orthogonalPerimeter;fontFamily=Lucida Console;fontSize=16;" parent="1" vertex="1"><mxGeometry x="634" y="329" width="10" height="761" as="geometry"/></mxCell><mxCell id="191" value="createIssuance" style="html=1;verticalAlign=bottom;endArrow=block;entryX=0;entryY=0;rounded=0;fontFamily=Lucida Console;fontSize=16;" parent="1" source="143" target="190" edge="1"><mxGeometry relative="1" as="geometry"><mxPoint x="564" y="329" as="sourcePoint"/></mxGeometry></mxCell><mxCell id="193" value="" style="html=1;points=[];perimeter=orthogonalPerimeter;fontFamily=Lucida Console;fontSize=16;" parent="1" vertex="1"><mxGeometry x="1034" y="350" width="10" height="80" as="geometry"/></mxCell><mxCell id="194" value="uw check" style="html=1;verticalAlign=bottom;endArrow=block;entryX=0;entryY=0;rounded=0;fontFamily=Lucida Console;fontSize=16;" parent="1" source="134" target="193" edge="1"><mxGeometry relative="1" as="geometry"><mxPoint x="804" y="350" as="sourcePoint"/></mxGeometry></mxCell><mxCell id="195" value="return" style="html=1;verticalAlign=bottom;endArrow=open;dashed=1;endSize=8;exitX=0;exitY=0.95;rounded=0;fontFamily=Lucida Console;fontSize=16;" parent="1" source="193" target="134" edge="1"><mxGeometry relative="1" as="geometry"><mxPoint x="720" y="426" as="targetPoint"/></mxGeometry></mxCell><mxCell id="197" value="premium check" style="html=1;verticalAlign=bottom;endArrow=block;entryX=0;entryY=0;rounded=0;fontFamily=Lucida Console;fontSize=16;" parent="1" source="134" target="196" edge="1"><mxGeometry relative="1" as="geometry"><mxPoint x="1014" y="469" as="sourcePoint"/></mxGeometry></mxCell><mxCell id="198" value="return" style="html=1;verticalAlign=bottom;endArrow=open;dashed=1;endSize=8;exitX=0;exitY=0.95;rounded=0;fontFamily=Lucida Console;fontSize=16;" parent="1" source="196" target="134" edge="1"><mxGeometry relative="1" as="geometry"><mxPoint x="1164" y="545" as="targetPoint"/></mxGeometry></mxCell><mxCell id="199" value="" style="html=1;points=[];perimeter=orthogonalPerimeter;fontFamily=Lucida Console;fontSize=16;" parent="1" vertex="1"><mxGeometry x="1435" y="729" width="10" height="80" as="geometry"/></mxCell><mxCell id="200" value="create customer" style="html=1;verticalAlign=bottom;endArrow=block;entryX=0;entryY=0;rounded=0;fontFamily=Lucida Console;fontSize=16;" parent="1" source="134" target="199" edge="1"><mxGeometry relative="1" as="geometry"><mxPoint x="714.3235294117649" y="728.9999999999998" as="sourcePoint"/></mxGeometry></mxCell><mxCell id="201" value="return" style="html=1;verticalAlign=bottom;endArrow=open;dashed=1;endSize=8;exitX=0;exitY=0.95;rounded=0;fontFamily=Lucida Console;fontSize=16;" parent="1" source="199" target="134" edge="1"><mxGeometry relative="1" as="geometry"><mxPoint x="714.3235294117649" y="804.9999999999998" as="targetPoint"/></mxGeometry></mxCell><mxCell id="203" value="coordinate" style="html=1;verticalAlign=bottom;endArrow=block;entryX=0;entryY=0;rounded=0;fontFamily=Lucida Console;fontSize=16;" parent="1" source="127" target="202" edge="1"><mxGeometry relative="1" as="geometry"><mxPoint x="319" y="754" as="sourcePoint"/></mxGeometry></mxCell><mxCell id="207" value="" style="html=1;points=[];perimeter=orthogonalPerimeter;fontFamily=Lucida Console;fontSize=16;" parent="1" vertex="1"><mxGeometry x="644" y="608.8700000000001" width="10" height="40" as="geometry"/></mxCell><mxCell id="208" value="save issuance router" style="edgeStyle=orthogonalEdgeStyle;html=1;align=left;spacingLeft=2;endArrow=block;rounded=0;entryX=1;entryY=0;fontFamily=Lucida Console;fontSize=16;exitX=1.224;exitY=0.293;exitDx=0;exitDy=0;exitPerimeter=0;" parent="1" edge="1"><mxGeometry relative="1" as="geometry"><mxPoint x="645.2399999999998" y="589.0029999999999" as="sourcePoint"/><Array as="points"><mxPoint x="679" y="588.8700000000001"/><mxPoint x="679" y="609.8700000000001"/></Array><mxPoint x="654" y="609.8700000000001" as="targetPoint"/></mxGeometry></mxCell><mxCell id="210" value="notify createPolicy" style="html=1;verticalAlign=bottom;endArrow=block;entryX=0;entryY=0;rounded=0;fontSize=14;fontFamily=Lucida Console;" edge="1" target="209" parent="1" source="134"><mxGeometry relative="1" as="geometry"><mxPoint x="760" y="1090" as="sourcePoint"/></mxGeometry></mxCell><mxCell id="215" value="notify create bill" style="html=1;verticalAlign=bottom;endArrow=block;entryX=0;entryY=0;rounded=0;fontFamily=Lucida Console;fontSize=14;" edge="1" target="214" parent="1" source="135"><mxGeometry relative="1" as="geometry"><mxPoint x="1565" y="1200" as="sourcePoint"/></mxGeometry></mxCell><mxCell id="216" value="return" style="html=1;verticalAlign=bottom;endArrow=open;dashed=1;endSize=8;exitX=0;exitY=0.95;rounded=0;fontFamily=Lucida Console;fontSize=14;" edge="1" source="214" parent="1" target="135"><mxGeometry relative="1" as="geometry"><mxPoint x="1565" y="1276" as="targetPoint"/></mxGeometry></mxCell><mxCell id="218" value="notify" style="html=1;verticalAlign=bottom;endArrow=block;entryX=0;entryY=0;rounded=0;fontFamily=Lucida Console;fontSize=14;" edge="1" target="217" parent="1" source="135"><mxGeometry relative="1" as="geometry"><mxPoint x="1766" y="1397" as="sourcePoint"/></mxGeometry></mxCell><mxCell id="219" value="send policy effective message" style="html=1;verticalAlign=bottom;endArrow=open;dashed=1;endSize=8;exitX=0;exitY=0.95;rounded=0;fontFamily=Lucida Console;fontSize=14;" edge="1" source="217" parent="1" target="129"><mxGeometry relative="1" as="geometry"><mxPoint x="740" y="1470" as="targetPoint"/></mxGeometry></mxCell></root></mxGraphModel></diagram></mxfile>